<svg version="1.2" xmlns="http://www.w3.org/2000/svg" viewBox="0 0 960 540" width="960" height="540">
	<title>circle-scatter-haikei (1)-svg</title>
	<style>
		.s0 { fill: #f0f7fc } 
		.s1 { fill: #f9b413 } 
		.s2 { fill: #8cc8e4 } 
	</style>
	<path id="Layer" class="s0" d="m0 0h960v540h-960z"/>
	<g id="Layer">
		<path id="Layer" class="s1" d="m675 347c-26.5 0-48-21.5-48-48 0-26.5 21.5-48 48-48 26.5 0 48 21.5 48 48 0 26.5-21.5 48-48 48z"/>
		<path id="Layer" class="s1" d="m876 532c-11.6 0-21-9.4-21-21 0-11.6 9.4-21 21-21 11.6 0 21 9.4 21 21 0 11.6-9.4 21-21 21z"/>
		<path id="Layer" class="s1" d="m220 187c-16.6 0-30-13.4-30-30 0-16.6 13.4-30 30-30 16.6 0 30 13.4 30 30 0 16.6-13.4 30-30 30z"/>
		<path id="Layer" class="s1" d="m461 516c-23.8 0-43-19.2-43-43 0-23.8 19.2-43 43-43 23.8 0 43 19.2 43 43 0 23.8-19.2 43-43 43z"/>
		<path id="Layer" class="s1" d="m87 542c-17.1 0-31-13.9-31-31 0-17.1 13.9-31 31-31 17.1 0 31 13.9 31 31 0 17.1-13.9 31-31 31z"/>
		<path id="Layer" class="s1" d="m642 144c-22.1 0-40-17.9-40-40 0-22.1 17.9-40 40-40 22.1 0 40 17.9 40 40 0 22.1-17.9 40-40 40z"/>
		<path id="Layer" class="s1" d="m123 270c-11.6 0-21-9.4-21-21 0-11.6 9.4-21 21-21 11.6 0 21 9.4 21 21 0 11.6-9.4 21-21 21z"/>
		<path id="Layer" class="s1" d="m672 570c-17.1 0-31-13.9-31-31 0-17.1 13.9-31 31-31 17.1 0 31 13.9 31 31 0 17.1-13.9 31-31 31z"/>
		<path id="Layer" class="s1" d="m323 513c-25.4 0-46-20.6-46-46 0-25.4 20.6-46 46-46 25.4 0 46 20.6 46 46 0 25.4-20.6 46-46 46z"/>
		<path id="Layer" class="s1" d="m745 105c-20.5 0-37-16.5-37-37 0-20.5 16.5-37 37-37 20.5 0 37 16.5 37 37 0 20.5-16.5 37-37 37z"/>
		<path id="Layer" class="s1" d="m55 432c-19.9 0-36-16.1-36-36 0-19.9 16.1-36 36-36 19.9 0 36 16.1 36 36 0 19.9-16.1 36-36 36z"/>
		<path id="Layer" class="s1" d="m384 79c-15.5 0-28-12.5-28-28 0-15.5 12.5-28 28-28 15.5 0 28 12.5 28 28 0 15.5-12.5 28-28 28z"/>
		<path id="Layer" class="s1" d="m312 370c-24.9 0-45-20.1-45-45 0-24.9 20.1-45 45-45 24.9 0 45 20.1 45 45 0 24.9-20.1 45-45 45z"/>
		<path id="Layer" class="s1" d="m232 551c-24.3 0-44-19.7-44-44 0-24.3 19.7-44 44-44 24.3 0 44 19.7 44 44 0 24.3-19.7 44-44 44z"/>
		<path id="Layer" class="s1" d="m813 198c-17.7 0-32-14.3-32-32 0-17.7 14.3-32 32-32 17.7 0 32 14.3 32 32 0 17.7-14.3 32-32 32z"/>
		<path id="Layer" class="s1" d="m372 640c-19.4 0-35-15.6-35-35 0-19.4 15.6-35 35-35 19.4 0 35 15.6 35 35 0 19.4-15.6 35-35 35z"/>
		<path id="Layer" class="s1" d="m5 152c-17.1 0-31-13.9-31-31 0-17.1 13.9-31 31-31 17.1 0 31 13.9 31 31 0 17.1-13.9 31-31 31z"/>
		<path id="Layer" class="s1" d="m483 81c-22.1 0-40-17.9-40-40 0-22.1 17.9-40 40-40 22.1 0 40 17.9 40 40 0 22.1-17.9 40-40 40z"/>
		<path id="Layer" class="s1" d="m958 453c-22.7 0-41-18.3-41-41 0-22.7 18.3-41 41-41 22.7 0 41 18.3 41 41 0 22.7-18.3 41-41 41z"/>
		<path id="Layer" class="s1" d="m386 684c-19.4 0-35-15.6-35-35 0-19.4 15.6-35 35-35 19.4 0 35 15.6 35 35 0 19.4-15.6 35-35 35z"/>
		<path id="Layer" class="s1" d="m893 141c-16 0-29-13-29-29 0-16 13-29 29-29 16 0 29 13 29 29 0 16-13 29-29 29z"/>
		<path id="Layer" class="s1" d="m659 198c-12.7 0-23-10.3-23-23 0-12.7 10.3-23 23-23 12.7 0 23 10.3 23 23 0 12.7-10.3 23-23 23z"/>
		<path id="Layer" class="s1" d="m794 331c-23.8 0-43-19.2-43-43 0-23.8 19.2-43 43-43 23.8 0 43 19.2 43 43 0 23.8-19.2 43-43 43z"/>
		<path id="Layer" class="s1" d="m561 394c-17.1 0-31-13.9-31-31 0-17.1 13.9-31 31-31 17.1 0 31 13.9 31 31 0 17.1-13.9 31-31 31z"/>
		<path id="Layer" class="s1" d="m519 595c-12.7 0-23-10.3-23-23 0-12.7 10.3-23 23-23 12.7 0 23 10.3 23 23 0 12.7-10.3 23-23 23z"/>
		<path id="Layer" class="s1" d="m110 112c-21 0-38-17-38-38 0-21 17-38 38-38 21 0 38 17 38 38 0 21-17 38-38 38z"/>
		<path id="Layer" class="s1" d="m187 364c-17.1 0-31-13.9-31-31 0-17.1 13.9-31 31-31 17.1 0 31 13.9 31 31 0 17.1-13.9 31-31 31z"/>
		<path id="Layer" class="s1" d="m774 508c-21.6 0-39-17.4-39-39 0-21.6 17.4-39 39-39 21.6 0 39 17.4 39 39 0 21.6-17.4 39-39 39z"/>
		<path id="Layer" class="s1" d="m915 53c-21 0-38-17-38-38 0-21 17-38 38-38 21 0 38 17 38 38 0 21-17 38-38 38z"/>
		<path id="Layer" class="s1" d="m957 296c-18.2 0-33-14.8-33-33 0-18.2 14.8-33 33-33 18.2 0 33 14.8 33 33 0 18.2-14.8 33-33 33z"/>
		<path id="Layer" class="s1" d="m570 572c-23.2 0-42-18.8-42-42 0-23.2 18.8-42 42-42 23.2 0 42 18.8 42 42 0 23.2-18.8 42-42 42z"/>
		<path id="Layer" class="s1" d="m247 94c-18.2 0-33-14.8-33-33 0-18.2 14.8-33 33-33 18.2 0 33 14.8 33 33 0 18.2-14.8 33-33 33z"/>
		<path id="Layer" class="s1" d="m488 329c-20.5 0-37-16.5-37-37 0-20.5 16.5-37 37-37 20.5 0 37 16.5 37 37 0 20.5-16.5 37-37 37z"/>
		<path id="Layer" class="s1" d="m29 314c-21.6 0-39-17.4-39-39 0-21.6 17.4-39 39-39 21.6 0 39 17.4 39 39 0 21.6-17.4 39-39 39z"/>
		<path id="Layer" class="s1" d="m666 52c-21 0-38-17-38-38 0-21 17-38 38-38 21 0 38 17 38 38 0 21-17 38-38 38z"/>
		<path id="Layer" class="s1" d="m624 463c-15.5 0-28-12.5-28-28 0-15.5 12.5-28 28-28 15.5 0 28 12.5 28 28 0 15.5-12.5 28-28 28z"/>
		<path id="Layer" class="s1" d="m838 419c-16.6 0-30-13.4-30-30 0-16.6 13.4-30 30-30 16.6 0 30 13.4 30 30 0 16.6-13.4 30-30 30z"/>
		<path id="Layer" class="s1" d="m151 454c-16 0-29-13-29-29 0-16 13-29 29-29 16 0 29 13 29 29 0 16-13 29-29 29z"/>
		<path id="Layer" class="s1" d="m328 176c-21 0-38-17-38-38 0-21 17-38 38-38 21 0 38 17 38 38 0 21-17 38-38 38z"/>
		<path id="Layer" class="s1" d="m44 43c-22.7 0-41-18.3-41-41 0-22.7 18.3-41 41-41 22.7 0 41 18.3 41 41 0 22.7-18.3 41-41 41z"/>
		<path id="Layer" class="s1" d="m431 397c-14.9 0-27-12.1-27-27 0-14.9 12.1-27 27-27 14.9 0 27 12.1 27 27 0 14.9-12.1 27-27 27z"/>
		<path id="Layer" class="s1" d="m241 297c-24.3 0-44-19.7-44-44 0-24.3 19.7-44 44-44 24.3 0 44 19.7 44 44 0 24.3-19.7 44-44 44z"/>
		<path id="Shape 1" class="s2" d="m327.5 182c-26.3 0-47.5-19.7-47.5-44 0-24.3 21.2-44 47.5-44 26.3 0 47.5 19.7 47.5 44 0 24.3-21.2 44-47.5 44z"/>
		<path id="Shape 2" class="s2" d="m567 624c-14.9 0-27-11.8-27-26.5 0-14.7 12.1-26.5 27-26.5 14.9 0 27 11.8 27 26.5 0 14.7-12.1 26.5-27 26.5z"/>
		<path id="Shape 3" class="s2" d="m323.5 638c-19.1 0-34.5-15.9-34.5-35.5 0-19.6 15.4-35.5 34.5-35.5 19.1 0 34.5 15.9 34.5 35.5 0 19.6-15.4 35.5-34.5 35.5z"/>
		<path id="Shape 6" class="s2" d="m643.5 145c-25.2 0-45.5-18.8-45.5-42 0-23.2 20.3-42 45.5-42 25.2 0 45.5 18.8 45.5 42 0 23.2-20.3 42-45.5 42z"/>
		<path id="Shape 7" class="s2" d="m838 422c-19.9 0-36-15.2-36-34 0-18.8 16.1-34 36-34 19.9 0 36 15.2 36 34 0 18.8-16.1 34-36 34z"/>
		<path id="Shape 8" class="s2" d="m876.5 534c-14.7 0-26.5-11-26.5-24.5 0-13.5 11.8-24.5 26.5-24.5 14.7 0 26.5 11 26.5 24.5 0 13.5-11.8 24.5-26.5 24.5z"/>
		<path id="Shape 9" class="s2" d="m671.5 556c-17.4 0-31.5-11.6-31.5-26 0-14.4 14.1-26 31.5-26 17.4 0 31.5 11.6 31.5 26 0 14.4-14.1 26-31.5 26z"/>
		<path id="Shape 10" class="s2" d="m54.5 435c-24.6 0-44.5-17.7-44.5-39.5 0-21.8 19.9-39.5 44.5-39.5 24.6 0 44.5 17.7 44.5 39.5 0 21.8-19.9 39.5-44.5 39.5z"/>
		<path id="Shape 11" class="s2" d="m312.5 373c-25.7 0-46.5-21.5-46.5-48 0-26.5 20.8-48 46.5-48 25.7 0 46.5 21.5 46.5 48 0 26.5-20.8 48-46.5 48z"/>
		<path id="Shape 12" class="s2" d="m462 522c-24.3 0-44-21.9-44-49 0-27.1 19.7-49 44-49 24.3 0 44 21.9 44 49 0 27.1-19.7 49-44 49z"/>
		<path id="Shape 13" class="s2" d="m110 112c-22.7 0-41-17-41-38 0-21 18.3-38 41-38 22.7 0 41 17 41 38 0 21-18.3 38-41 38z"/>
		<path id="Shape 14" class="s2" d="m123.5 270c-14.7 0-26.5-10.1-26.5-22.5 0-12.4 11.8-22.5 26.5-22.5 14.7 0 26.5 10.1 26.5 22.5 0 12.4-11.8 22.5-26.5 22.5z"/>
		<path id="Shape 15" class="s2" d="m233.5 552c-24.6 0-44.5-20.1-44.5-45 0-24.9 19.9-45 44.5-45 24.6 0 44.5 20.1 44.5 45 0 24.9-19.9 45-44.5 45z"/>
		<path id="Shape 16" class="s2" d="m359.5 699c-20.2 0-36.5-16.3-36.5-36.5 0-20.2 16.3-36.5 36.5-36.5 20.2 0 36.5 16.3 36.5 36.5 0 20.2-16.3 36.5-36.5 36.5z"/>
		<path id="Shape 17" class="s2" d="m913.5 59c-21.8 0-39.5-20.1-39.5-45 0-24.9 17.7-45 39.5-45 21.8 0 39.5 20.1 39.5 45 0 24.9-17.7 45-39.5 45z"/>
		<path id="Shape 4" class="s2" d="m623 462c-17.1 0-31-12.3-31-27.5 0-15.2 13.9-27.5 31-27.5 17.1 0 31 12.3 31 27.5 0 15.2-13.9 27.5-31 27.5z"/>
		<path id="Shape 5" class="s2" d="m815.5 203c-20.2 0-36.5-16.3-36.5-36.5 0-20.2 16.3-36.5 36.5-36.5 20.2 0 36.5 16.3 36.5 36.5 0 20.2-16.3 36.5-36.5 36.5z"/>
	</g>
</svg>