<svg xmlns="http://www.w3.org/2000/svg" xmlns:xlink="http://www.w3.org/1999/xlink" version="1.1" width="256" height="256" viewBox="0 0 256 256" xml:space="preserve">

<defs>
</defs>
<g style="stroke: none; stroke-width: 0; stroke-dasharray: none; stroke-linecap: butt; stroke-linejoin: miter; stroke-miterlimit: 10; fill: none; fill-rule: nonzero; opacity: 1;" transform="translate(1.4065934065934016 1.4065934065934016) scale(2.81 2.81)" >
	<path d="M 54.522 37.268 c 0 4.124 -3.329 7.453 -7.453 7.468 c -4.124 0 -7.453 -3.329 -7.468 -7.453 c 0 -4.109 3.329 -7.453 7.438 -7.468 C 51.163 29.8 54.507 33.129 54.522 37.268 C 54.522 37.253 54.522 37.253 54.522 37.268 z" style="stroke: none; stroke-width: 1; stroke-dasharray: none; stroke-linecap: butt; stroke-linejoin: miter; stroke-miterlimit: 10; fill: rgb(242,121,35); fill-rule: nonzero; opacity: 1;" transform=" matrix(1 0 0 1 0 0) " stroke-linecap="round" />
	<path d="M 4.678 30.25 H 0.66 v 14.065 h 4.019 c 1.829 0.105 3.629 -0.48 5.038 -1.634 c 1.604 -1.335 2.519 -3.314 2.519 -5.398 C 12.236 33.174 9.132 30.25 4.678 30.25 z M 7.887 40.807 c -0.87 0.75 -1.979 1.11 -3.749 1.11 h -0.75 V 32.62 h 0.735 c 1.769 0 2.849 0.315 3.749 1.14 c 0.975 0.9 1.529 2.174 1.514 3.494 C 9.417 38.618 8.862 39.892 7.887 40.807 z M 13.496 30.25 h 2.744 v 14.065 h -2.744 C 13.496 44.316 13.496 30.25 13.496 30.25 z M 22.957 35.649 c -1.679 -0.6 -2.129 -1.005 -2.129 -1.769 s 0.87 -1.529 2.054 -1.529 c 0.87 0.015 1.679 0.435 2.204 1.14 l 1.44 -1.874 c -1.14 -1.02 -2.609 -1.574 -4.124 -1.574 c -2.279 -0.15 -4.244 1.589 -4.379 3.854 c 0 0.045 0 0.09 0 0.135 c 0 1.934 0.885 2.924 3.464 3.854 c 0.66 0.21 1.29 0.495 1.889 0.84 c 0.525 0.3 0.84 0.855 0.84 1.455 c 0 1.11 -0.915 1.994 -2.009 1.979 c -0.045 0 -0.075 0 -0.12 0 c -1.275 0.015 -2.459 -0.705 -2.999 -1.874 l -1.769 1.679 c 1.02 1.709 2.879 2.744 4.873 2.684 c 2.849 0 4.858 -1.904 4.858 -4.618 C 27.006 37.793 26.061 36.788 22.957 35.649 z M 27.861 37.283 c -0.03 4.019 3.209 7.318 7.228 7.348 c 0.075 0 0.135 0 0.21 0 c 1.2 0 2.384 -0.285 3.449 -0.84 v -3.209 c -0.84 0.99 -2.069 1.544 -3.359 1.544 c -2.534 0.075 -4.648 -1.919 -4.723 -4.454 c 0 -0.135 0 -0.27 0 -0.39 c -0.09 -2.579 1.934 -4.738 4.513 -4.828 c 0.045 0 0.075 0 0.12 0 c 1.32 0.015 2.564 0.585 3.434 1.574 v -3.224 c -1.035 -0.555 -2.189 -0.84 -3.359 -0.84 c -4.079 -0.06 -7.453 3.209 -7.512 7.288 C 27.861 37.253 27.861 37.268 27.861 37.283 z M 60.49 39.682 l -3.749 -9.447 h -2.984 l 5.968 14.44 h 1.47 l 6.073 -14.44 h -2.969 L 60.49 39.682 z M 68.497 44.316 h 7.782 v -2.384 h -5.038 v -3.794 H 76.1 v -2.384 h -4.858 v -3.119 h 5.038 V 30.25 h -7.782 L 68.497 44.316 L 68.497 44.316 z M 87.151 34.404 c 0 -2.639 -1.814 -4.154 -4.978 -4.154 h -4.049 v 14.065 h 2.744 v -5.653 h 0.36 l 3.809 5.653 h 3.359 l -4.439 -5.923 C 85.891 38.108 87.301 36.368 87.151 34.404 z M 81.648 36.728 h -0.84 V 32.47 h 0.84 c 1.679 0 2.639 0.72 2.639 2.084 C 84.287 35.918 83.402 36.728 81.648 36.728 z M 89.325 30.985 c 0 -0.24 -0.165 -0.375 -0.465 -0.375 h -0.39 v 1.23 h 0.3 v -0.48 l 0.36 0.48 h 0.36 l -0.45 -0.51 C 89.205 31.315 89.34 31.165 89.325 30.985 z M 88.815 31.15 H 88.77 v -0.315 h 0.06 c 0.15 0 0.225 0.045 0.225 0.165 C 89.055 31.12 88.965 31.15 88.815 31.15 z M 88.935 30.13 c -0.6 -0.015 -1.095 0.465 -1.095 1.065 c -0.015 0.6 0.465 1.095 1.065 1.095 c 0.6 0.015 1.095 -0.465 1.095 -1.065 V 31.21 C 90 30.625 89.52 30.145 88.935 30.13 z M 88.935 32.11 c -0.465 0 -0.84 -0.375 -0.84 -0.84 c 0 -0.015 0 -0.03 0 -0.045 c 0 -0.465 0.375 -0.84 0.84 -0.84 c 0.465 0 0.84 0.375 0.84 0.84 c 0.03 0.465 -0.33 0.855 -0.795 0.885 C 88.965 32.11 88.935 32.11 88.935 32.11 L 88.935 32.11 z M 0.03 55.847 c -0.045 -2.354 1.814 -4.319 4.184 -4.364 c 0.06 0 0.12 0 0.18 0 c 1.559 -0.105 3.044 0.69 3.824 2.054 l -1.14 0.705 c -0.48 -1.035 -1.544 -1.664 -2.684 -1.559 c -1.694 -0.03 -3.089 1.335 -3.104 3.014 c 0 0.045 0 0.09 0 0.15 c -0.105 1.604 1.095 2.999 2.699 3.104 c 0.075 0 0.15 0.015 0.24 0 c 1.395 0.135 2.654 -0.855 2.849 -2.234 H 4.139 v -1.2 h 4.139 v 4.513 h -1.23 v -1.32 l 0.045 -0.315 c -0.495 1.155 -1.694 1.859 -2.954 1.739 C 1.889 60.165 0.03 58.366 0 56.117 C 0.03 56.027 0.03 55.937 0.03 55.847 z M 9.777 50.928 h 1.26 v 9.117 h -1.26 V 50.928 z M 12.236 56.911 c 0 -1.799 1.455 -3.254 3.254 -3.254 s 3.254 1.455 3.254 3.254 s -1.455 3.254 -3.254 3.254 l 0 0 c -1.784 0.015 -3.239 -1.425 -3.254 -3.209 C 12.236 56.926 12.236 56.926 12.236 56.911 z M 17.499 56.911 c -0.045 -1.11 -0.975 -1.964 -2.084 -1.934 s -1.964 0.975 -1.934 2.084 c 0.045 1.08 0.915 1.919 1.994 1.934 c 1.125 -0.015 2.024 -0.945 2.009 -2.069 C 17.499 56.926 17.499 56.911 17.499 56.911 z M 21.158 59.131 v 0.915 h -1.23 v -9.147 h 1.245 v 3.794 c 0.51 -0.66 1.305 -1.035 2.129 -1.035 c 1.799 0 3.254 1.455 3.254 3.254 s -1.455 3.239 -3.254 3.254 C 22.478 60.165 21.683 59.79 21.158 59.131 z M 25.222 56.896 c 0.075 -1.125 -0.78 -2.099 -1.919 -2.174 c -1.125 -0.075 -2.099 0.78 -2.174 1.919 c 0 0.09 0 0.18 0 0.255 c -0.075 1.125 0.78 2.099 1.919 2.174 c 1.125 0.075 2.099 -0.78 2.174 -1.919 C 25.222 57.076 25.222 56.986 25.222 56.896 z M 27.336 58.411 c 0 -1.245 0.78 -1.799 2.474 -2.009 c 1.215 -0.15 1.634 -0.24 1.634 -0.675 c 0 -0.45 -0.33 -1.005 -1.29 -1.005 c -0.75 -0.06 -1.425 0.465 -1.574 1.215 l -1.2 -0.51 c 0.435 -1.125 1.559 -1.829 2.759 -1.754 c 1.589 0 2.564 0.84 2.564 2.354 v 4.019 H 31.49 v -0.975 c -0.405 0.75 -1.23 1.185 -2.069 1.095 C 28.191 60.165 27.336 59.431 27.336 58.411 z M 30.995 58.576 c 0.315 -0.285 0.495 -0.675 0.495 -1.095 v -0.54 c 0 0.24 -0.435 0.3 -1.38 0.405 c -0.945 0.12 -1.529 0.39 -1.529 0.96 s 0.405 0.75 1.005 0.75 C 30.095 59.086 30.605 58.906 30.995 58.576 z M 34.069 50.928 h 1.23 v 9.117 h -1.26 L 34.069 50.928 z M 39.677 51.588 h 1.38 l 4.199 6.403 v -6.403 h 1.23 v 8.442 h -1.26 l -4.319 -6.523 v 6.523 h -1.23 V 51.588 z M 47.699 56.941 c -0.03 -1.769 1.38 -3.239 3.149 -3.269 c 0.03 0 0.06 0 0.09 0 c 1.709 -0.06 3.149 1.29 3.209 2.999 c 0 0.06 0 0.12 0 0.195 v 0.525 h -5.248 c 0.27 1.17 1.44 1.889 2.594 1.619 c 0.555 -0.135 1.035 -0.465 1.335 -0.945 l 1.035 0.615 c -0.615 0.975 -1.709 1.544 -2.849 1.5 c -1.739 0.09 -3.239 -1.26 -3.329 -2.999 C 47.699 57.076 47.699 57.016 47.699 56.941 z M 48.944 56.312 h 3.974 c -0.15 -0.945 -0.99 -1.619 -1.949 -1.544 C 50.023 54.737 49.184 55.382 48.944 56.312 z M 55.901 57.991 v -3.074 h -1.245 v -1.125 h 1.245 v -1.35 l 1.23 -0.795 v 2.144 h 1.739 v 1.125 h -1.739 v 3.074 c 0 0.675 0.345 0.99 0.84 0.99 c 0.33 0 0.645 -0.075 0.93 -0.255 v 1.17 c -0.315 0.195 -0.66 0.285 -1.02 0.255 C 56.621 60.135 55.901 59.536 55.901 57.991 z M 59.59 53.792 h 1.29 l 1.455 4.573 l 1.679 -4.543 h 1.215 l 1.679 4.543 l 1.499 -4.543 h 1.32 l -2.189 6.223 h -1.17 l -1.679 -4.588 l -1.799 4.588 h -1.23 L 59.59 53.792 z M 70.162 56.911 c 0 -1.799 1.455 -3.254 3.254 -3.254 s 3.254 1.455 3.254 3.254 s -1.455 3.254 -3.254 3.254 c -1.784 0.015 -3.239 -1.425 -3.254 -3.209 C 70.162 56.926 70.162 56.926 70.162 56.911 z M 75.425 56.911 c -0.045 -1.11 -0.975 -1.964 -2.084 -1.934 c -1.11 0.045 -1.964 0.975 -1.934 2.084 c 0.045 1.08 0.93 1.934 2.009 1.934 c 1.125 -0.015 2.024 -0.93 2.009 -2.054 C 75.425 56.926 75.425 56.911 75.425 56.911 z M 77.854 53.792 h 1.23 v 1.065 c 0.3 -0.705 1.02 -1.125 1.784 -1.065 h 0.525 v 1.275 h -0.75 c -0.99 0 -1.559 0.405 -1.559 1.604 v 3.359 h -1.23 V 53.792 z M 84.917 57.196 l -1.125 1.215 v 1.634 h -1.23 v -9.117 h 1.23 v 6.058 l 2.909 -3.194 h 1.529 l -2.414 2.624 l 2.519 3.614 h -1.47 L 84.917 57.196 z" style="stroke: none; stroke-width: 1; stroke-dasharray: none; stroke-linecap: butt; stroke-linejoin: miter; stroke-miterlimit: 10; fill: rgb(53,54,58); fill-rule: nonzero; opacity: 1;" transform=" matrix(1 0 0 1 0 0) " stroke-linecap="round" />
</g>
</svg>