<svg id="visual" viewBox="0 0 960 540" width="960" height="540" xmlns="http://www.w3.org/2000/svg" xmlns:xlink="http://www.w3.org/1999/xlink" version="1.1"><rect x="0" y="0" width="960" height="540" fill="#FFFFFF"></rect><path d="M0 335L22.8 343.7C45.7 352.3 91.3 369.7 137 367.8C182.7 366 228.3 345 274 346.2C319.7 347.3 365.3 370.7 411.2 371.5C457 372.3 503 350.7 548.8 349.3C594.7 348 640.3 367 686 372.3C731.7 377.7 777.3 369.3 823 359.3C868.7 349.3 914.3 337.7 937.2 331.8L960 326L960 541L937.2 541C914.3 541 868.7 541 823 541C777.3 541 731.7 541 686 541C640.3 541 594.7 541 548.8 541C503 541 457 541 411.2 541C365.3 541 319.7 541 274 541C228.3 541 182.7 541 137 541C91.3 541 45.7 541 22.8 541L0 541Z" fill="#f9b413"></path><path d="M0 398L22.8 394.2C45.7 390.3 91.3 382.7 137 381.7C182.7 380.7 228.3 386.3 274 386C319.7 385.7 365.3 379.3 411.2 378.8C457 378.3 503 383.7 548.8 384C594.7 384.3 640.3 379.7 686 379.8C731.7 380 777.3 385 823 386.7C868.7 388.3 914.3 386.7 937.2 385.8L960 385L960 541L937.2 541C914.3 541 868.7 541 823 541C777.3 541 731.7 541 686 541C640.3 541 594.7 541 548.8 541C503 541 457 541 411.2 541C365.3 541 319.7 541 274 541C228.3 541 182.7 541 137 541C91.3 541 45.7 541 22.8 541L0 541Z" fill="#f7a810"></path><path d="M0 439L22.8 440.2C45.7 441.3 91.3 443.7 137 436.2C182.7 428.7 228.3 411.3 274 410.2C319.7 409 365.3 424 411.2 427C457 430 503 421 548.8 424.3C594.7 427.7 640.3 443.3 686 448C731.7 452.7 777.3 446.3 823 440.7C868.7 435 914.3 430 937.2 427.5L960 425L960 541L937.2 541C914.3 541 868.7 541 823 541C777.3 541 731.7 541 686 541C640.3 541 594.7 541 548.8 541C503 541 457 541 411.2 541C365.3 541 319.7 541 274 541C228.3 541 182.7 541 137 541C91.3 541 45.7 541 22.8 541L0 541Z" fill="#f59b0f"></path><path d="M0 480L22.8 474.8C45.7 469.7 91.3 459.3 137 459C182.7 458.7 228.3 468.3 274 471.2C319.7 474 365.3 470 411.2 470.7C457 471.3 503 476.7 548.8 479.5C594.7 482.3 640.3 482.7 686 474.3C731.7 466 777.3 449 823 443.7C868.7 438.3 914.3 444.7 937.2 447.8L960 451L960 541L937.2 541C914.3 541 868.7 541 823 541C777.3 541 731.7 541 686 541C640.3 541 594.7 541 548.8 541C503 541 457 541 411.2 541C365.3 541 319.7 541 274 541C228.3 541 182.7 541 137 541C91.3 541 45.7 541 22.8 541L0 541Z" fill="#f28f11"></path><path d="M0 507L22.8 503.3C45.7 499.7 91.3 492.3 137 489.8C182.7 487.3 228.3 489.7 274 490.5C319.7 491.3 365.3 490.7 411.2 491.2C457 491.7 503 493.3 548.8 495.7C594.7 498 640.3 501 686 498.5C731.7 496 777.3 488 823 485.2C868.7 482.3 914.3 484.7 937.2 485.8L960 487L960 541L937.2 541C914.3 541 868.7 541 823 541C777.3 541 731.7 541 686 541C640.3 541 594.7 541 548.8 541C503 541 457 541 411.2 541C365.3 541 319.7 541 274 541C228.3 541 182.7 541 137 541C91.3 541 45.7 541 22.8 541L0 541Z" fill="#ef8214"></path></svg>