<svg version="1.2" xmlns="http://www.w3.org/2000/svg" viewBox="0 0 960 540" width="960" height="540">
	<title>layered-waves-grey-svg</title>
	<style>
		.s0 { fill: #f8f8f8 } 
		.s1 { fill: #f9b413 } 
		.s2 { fill: #f7a810 } 
		.s3 { fill: #f59b0f } 
	</style>
	<path id="Layer" class="s0" d="m0 0h960v540h-960z"/>
	<path id="Layer" class="s1" d="m0 324l22.8 8.7c22.9 8.6 68.5 26 114.2 24.1 45.7-1.8 91.3-22.8 137-21.6 45.7 1.1 91.3 24.5 137.2 25.3 45.8 0.8 91.8-20.8 137.6-22.2 45.9-1.3 91.5 17.7 137.2 23 45.7 5.4 91.3-3 137-13 45.7-10 91.3-21.6 114.2-27.5l22.8-5.8v215h-22.8c-22.9 0-68.5 0-114.2 0-45.7 0-91.3 0-137 0-45.7 0-91.3 0-137.2 0-45.8 0-91.8 0-137.6 0-45.9 0-91.5 0-137.2 0-45.7 0-91.3 0-137 0-45.7 0-91.3 0-114.2 0h-22.8z"/>
	<path id="Layer" class="s2" d="m0 390l22.8-3.8c22.9-3.9 68.5-11.5 114.2-12.5 45.7-1 91.3 4.6 137 4.3 45.7-0.3 91.3-6.7 137.2-7.2 45.8-0.5 91.8 4.9 137.6 5.2 45.9 0.3 91.5-4.3 137.2-4.2 45.7 0.2 91.3 5.2 137 6.9 45.7 1.6 91.3 0 114.2-0.9l22.8-0.8v156h-22.8c-22.9 0-68.5 0-114.2 0-45.7 0-91.3 0-137 0-45.7 0-91.3 0-137.2 0-45.8 0-91.8 0-137.6 0-45.9 0-91.5 0-137.2 0-45.7 0-91.3 0-137 0-45.7 0-91.3 0-114.2 0h-22.8z"/>
	<path id="Layer" class="s3" d="m0 416l22.8 1.2c22.9 1.1 68.5 3.5 114.2-4 45.7-7.5 91.3-24.9 137-26 45.7-1.2 91.3 13.8 137.2 16.8 45.8 3 91.8-6 137.6-2.7 45.9 3.4 91.5 19 137.2 23.7 45.7 4.7 91.3-1.7 137-7.3 45.7-5.7 91.3-10.7 114.2-13.2l22.8-2.5v116h-22.8c-22.9 0-68.5 0-114.2 0-45.7 0-91.3 0-137 0-45.7 0-91.3 0-137.2 0-45.8 0-91.8 0-137.6 0-45.9 0-91.5 0-137.2 0-45.7 0-91.3 0-137 0-45.7 0-91.3 0-114.2 0h-22.8z"/>
	<path id="Layer" class="s0" d="m0 466l22.8-5.2c22.9-5.1 68.5-15.5 114.2-15.8 45.7-0.3 91.3 9.3 137 12.2 45.7 2.8 91.3-1.2 137.2-0.5 45.8 0.6 91.8 6 137.6 8.8 45.9 2.8 91.5 3.2 137.2-5.2 45.7-8.3 91.3-25.3 137-30.6 45.7-5.4 91.3 1 114.2 4.1l22.8 3.2v90h-22.8c-22.9 0-68.5 0-114.2 0-45.7 0-91.3 0-137 0-45.7 0-91.3 0-137.2 0-45.8 0-91.8 0-137.6 0-45.9 0-91.5 0-137.2 0-45.7 0-91.3 0-137 0-45.7 0-91.3 0-114.2 0h-22.8z"/>
	<path id="Layer" class="s0" d="m0 527l22.8-3.7c22.9-3.6 68.5-11 114.2-13.5 45.7-2.5 91.3-0.1 137 0.7 45.7 0.8 91.3 0.2 137.2 0.7 45.8 0.5 91.8 2.1 137.6 4.5 45.9 2.3 91.5 5.3 137.2 2.8 45.7-2.5 91.3-10.5 137-13.3 45.7-2.9 91.3-0.5 114.2 0.6l22.8 1.2v54h-22.8c-22.9 0-68.5 0-114.2 0-45.7 0-91.3 0-137 0-45.7 0-91.3 0-137.2 0-45.8 0-91.8 0-137.6 0-45.9 0-91.5 0-137.2 0-45.7 0-91.3 0-137 0-45.7 0-91.3 0-114.2 0h-22.8z"/>
</svg>