<svg xmlns="http://www.w3.org/2000/svg" xmlns:xlink="http://www.w3.org/1999/xlink" version="1.1" width="256" height="256" viewBox="0 0 256 256" xml:space="preserve">

<defs>
</defs>
<g style="stroke: none; stroke-width: 0; stroke-dasharray: none; stroke-linecap: butt; stroke-linejoin: miter; stroke-miterlimit: 10; fill: none; fill-rule: nonzero; opacity: 1;" transform="translate(1.4065934065934016 1.4065934065934016) scale(2.81 2.81)" >
	<path d="M 45 65.105 c 5.651 -5.155 8.865 -12.456 8.851 -20.105 c 0.014 -7.649 -3.2 -14.95 -8.851 -20.105 c -4.779 -4.362 -11.118 -7.021 -18.075 -7.021 C 12.055 17.874 0 30.019 0 45 C 0 59.98 12.055 72.125 26.925 72.125 C 33.882 72.125 40.222 69.467 45 65.105 z" style="stroke: none; stroke-width: 1; stroke-dasharray: none; stroke-linecap: butt; stroke-linejoin: miter; stroke-miterlimit: 10; fill: rgb(58,155,217); fill-rule: nonzero; opacity: 1;" transform=" matrix(1 0 0 1 0 0) " stroke-linecap="round" />
	<path d="M 63.075 17.874 c -6.957 0 -13.297 2.658 -18.075 7.021 c -0.974 0.89 -1.883 1.85 -2.718 2.872 h 5.435 c 0.746 0.912 1.432 1.871 2.054 2.872 h -9.542 c -0.574 0.926 -1.093 1.885 -1.552 2.872 h 12.644 c 0.435 0.935 0.817 1.894 1.143 2.872 H 37.536 c -0.313 0.942 -0.574 1.901 -0.782 2.872 h 16.491 c 0.404 1.888 0.607 3.814 0.606 5.744 c 0 3.011 -0.489 5.909 -1.388 8.616 H 37.536 c 0.325 0.979 0.705 1.938 1.14 2.872 h 12.644 c -0.459 0.988 -0.976 1.947 -1.55 2.872 h -9.541 c 0.621 1.001 1.307 1.96 2.052 2.872 h 5.435 c -0.834 1.022 -1.742 1.982 -2.717 2.872 c 4.778 4.362 11.118 7.021 18.075 7.021 C 77.944 72.126 90 59.981 90 45 C 90 30.019 77.944 17.874 63.075 17.874 L 63.075 17.874 z" style="stroke: none; stroke-width: 1; stroke-dasharray: none; stroke-linecap: butt; stroke-linejoin: miter; stroke-miterlimit: 10; fill: rgb(204,33,49); fill-rule: nonzero; opacity: 1;" transform=" matrix(1 0 0 1 0 0) " stroke-linecap="round" />
	<path d="M 23.562 51.754 h -3.351 l 1.992 -10.572 l -4.585 10.572 h -3.056 l -0.559 -10.511 l -1.998 10.511 H 8.963 l 2.599 -13.752 h 5.229 l 0.277 8.514 l 3.687 -8.514 h 5.449 L 23.562 51.754 L 23.562 51.754 z M 61.012 51.617 c -0.917 0.254 -1.634 0.363 -2.408 0.363 c -1.714 0 -2.651 -0.866 -2.651 -2.456 c 0 -0.315 0.035 -0.649 0.099 -1.003 l 0.204 -1.093 l 0.157 -0.885 l 1.553 -8.54 h 3.333 l -0.483 2.568 h 1.71 l -0.459 2.719 H 60.35 l -0.883 4.666 c -0.033 0.152 -0.052 0.307 -0.057 0.463 c 0 0.578 0.347 0.829 1.143 0.829 c 0.381 0 0.677 -0.035 0.904 -0.104 L 61.012 51.617 L 61.012 51.617 z M 70.8 40.662 c -0.281 -0.112 -0.347 -0.112 -0.38 -0.121 c -0.178 -0.039 -0.272 -0.063 -0.289 -0.065 c -0.111 -0.019 -0.224 -0.029 -0.337 -0.028 c -1.1 0 -1.893 0.494 -2.919 1.816 l 0.296 -1.695 h -3.035 l -2.043 11.185 h 3.353 c 1.2 -6.84 1.714 -8.038 3.322 -8.038 c 0.121 0 0.261 0.01 0.424 0.028 l 0.392 0.08 L 70.8 40.662 L 70.8 40.662 z M 47.728 44.104 c 0 1.413 0.79 2.386 2.582 3.117 c 1.373 0.562 1.585 0.726 1.585 1.234 c 0 0.696 -0.605 1.01 -1.946 1.01 c -1.012 0 -1.953 -0.137 -3.038 -0.443 l -0.465 2.58 l 0.15 0.025 l 0.621 0.114 c 0.2 0.035 0.495 0.068 0.886 0.098 c 0.806 0.063 1.43 0.093 1.87 0.093 c 3.577 0 5.23 -1.181 5.23 -3.732 c 0 -1.535 -0.691 -2.435 -2.389 -3.113 c -1.422 -0.566 -1.586 -0.692 -1.586 -1.214 c 0 -0.603 0.564 -0.913 1.659 -0.913 c 0.666 0 1.575 0.063 2.436 0.168 l 0.483 -2.589 c -0.877 -0.12 -2.209 -0.219 -2.983 -0.219 C 49.029 40.322 47.717 42.041 47.728 44.104 z M 34.456 51.754 h -2.785 l 0.065 -1.159 c -0.848 0.918 -1.979 1.353 -3.515 1.353 c -1.816 0 -3.062 -1.246 -3.062 -3.055 c 0 -2.725 2.165 -4.313 5.887 -4.313 c 0.381 0 0.866 0.03 1.365 0.086 c 0.104 -0.368 0.132 -0.526 0.132 -0.726 c 0 -0.74 -0.584 -1.017 -2.149 -1.017 c -0.957 0 -2.038 0.121 -2.785 0.312 l -0.464 0.119 l -0.301 0.072 l 0.465 -2.514 c 1.671 -0.431 2.773 -0.594 4.012 -0.594 c 2.88 0 4.402 1.136 4.402 3.281 c 0 0.552 -0.051 0.971 -0.272 2.216 l -0.7 3.968 l -0.118 0.712 l -0.086 0.569 l -0.057 0.389 L 34.456 51.754 L 34.456 51.754 z M 32.011 46.771 c -0.248 -0.031 -0.499 -0.046 -0.749 -0.046 c -1.899 0 -2.861 0.572 -2.861 1.701 c 0 0.696 0.47 1.141 1.202 1.141 C 30.969 49.568 31.953 48.425 32.011 46.771 L 32.011 46.771 z M 45.449 51.513 c -1.119 0.304 -2.274 0.456 -3.434 0.454 c -3.746 -0.003 -5.699 -1.721 -5.699 -5.011 c 0 -3.839 2.484 -6.666 5.856 -6.666 c 2.759 0 4.52 1.583 4.52 4.065 c 0 0.824 -0.12 1.627 -0.411 2.761 h -6.663 c -0.02 0.116 -0.031 0.233 -0.032 0.351 c 0 1.296 0.993 1.958 2.94 1.958 c 1.197 0 2.279 -0.219 3.48 -0.708 L 45.449 51.513 L 45.449 51.513 z M 43.665 44.858 c 0.018 -0.233 0.028 -0.423 0.028 -0.571 c 0 -0.908 -0.587 -1.441 -1.585 -1.441 c -1.066 0 -1.828 0.715 -2.138 2.005 L 43.665 44.858 z M 81.217 46.683 c -0.502 3.72 -3.081 5.371 -6.509 5.371 c -3.791 0 -5.322 -2.317 -5.322 -5.155 c 0 -3.964 2.593 -6.65 6.599 -6.65 c 3.477 0 5.322 2.209 5.322 5.048 C 81.306 45.987 81.305 46.033 81.217 46.683 L 81.217 46.683 z M 77.766 45.252 c 0 -1.17 -0.471 -2.274 -1.845 -2.274 c -1.71 0 -2.77 2.036 -2.77 3.834 c 0 1.516 0.726 2.535 1.924 2.514 c 0.726 0 2.275 -0.997 2.582 -2.738 C 77.728 46.182 77.766 45.736 77.766 45.252 L 77.766 45.252 z" style="stroke: none; stroke-width: 1; stroke-dasharray: none; stroke-linecap: butt; stroke-linejoin: miter; stroke-miterlimit: 10; fill: rgb(255,255,255); fill-rule: nonzero; opacity: 1;" transform=" matrix(1 0 0 1 0 0) " stroke-linecap="round" />
</g>
</svg>