<svg xmlns="http://www.w3.org/2000/svg" xmlns:xlink="http://www.w3.org/1999/xlink" width="1200" zoomAndPan="magnify" viewBox="0 0 900 269.999989" height="360" preserveAspectRatio="xMidYMid meet" version="1.0"><defs><g/></defs><rect x="-90" width="1080" fill="#ffffff" y="-26.999999" height="323.999987" fill-opacity="1"/><rect x="-90" width="1080" fill="#f0f7fc" y="-26.999999" height="323.999987" fill-opacity="1"/><g fill="#ef8214" fill-opacity="0.4"><g transform="translate(68.20598, 126.666834)"><g><path d="M 35.835938 -63.996094 L 35.835938 -22.078125 C 35.835938 -16.078125 31.039062 -11.199219 25.039062 -11.199219 C 20.558594 -11.199219 16.71875 -13.917969 15.039062 -17.839844 L 5.601562 -10.160156 C 9.679688 -3.679688 16.878906 0.71875 25.039062 0.71875 C 37.519531 0.71875 47.835938 -9.519531 47.835938 -22.078125 L 47.835938 -63.996094 Z M 35.835938 -63.996094 "/></g></g></g><g fill="#ef8214" fill-opacity="0.4"><g transform="translate(121.640786, 126.666834)"><g><path d="M 35.519531 -64.796875 C 17.4375 -64.796875 2.800781 -50.15625 2.800781 -32.078125 C 2.800781 -14 17.4375 0.640625 35.519531 0.640625 C 53.597656 0.640625 68.234375 -14 68.234375 -32.078125 C 68.234375 -50.15625 53.597656 -64.796875 35.519531 -64.796875 Z M 35.519531 -52.558594 C 46.878906 -52.558594 54.875 -43.355469 54.875 -32.078125 C 54.875 -20.796875 46.878906 -11.597656 35.519531 -11.597656 C 24.238281 -11.597656 16.238281 -20.796875 16.238281 -32.078125 C 16.238281 -43.355469 24.238281 -52.558594 35.519531 -52.558594 Z M 35.519531 -52.558594 "/></g></g></g><g fill="#ef8214" fill-opacity="0.4"><g transform="translate(192.67388, 126.666834)"><g><path d="M 5.601562 -63.996094 L 17.597656 -63.996094 L 17.597656 -0.238281 L 5.601562 -0.238281 Z M 5.601562 -63.996094 "/></g></g></g><g fill="#ef8214" fill-opacity="0.4"><g transform="translate(215.871624, 126.666834)"><g><path d="M 43.597656 -63.996094 L 43.597656 -20.796875 L 18.71875 -63.996094 L 5.601562 -63.996094 L 5.601562 0 L 17.597656 0 L 17.597656 -40.078125 L 40.636719 0 L 55.597656 0 L 55.597656 -63.996094 Z M 43.597656 -63.996094 "/></g></g></g><g fill="#ef8214" fill-opacity="0.4"><g transform="translate(277.065673, 126.666834)"><g/></g></g><g fill="#ef8214" fill-opacity="0.4"><g transform="translate(301.063336, 126.666834)"><g><path d="M 35.519531 -64.796875 C 17.4375 -64.796875 2.800781 -50.15625 2.800781 -32.078125 C 2.800781 -14 17.4375 0.640625 35.519531 0.640625 C 53.597656 0.640625 68.234375 -14 68.234375 -32.078125 C 68.234375 -50.15625 53.597656 -64.796875 35.519531 -64.796875 Z M 35.519531 -52.558594 C 46.878906 -52.558594 54.875 -43.355469 54.875 -32.078125 C 54.875 -20.796875 46.878906 -11.597656 35.519531 -11.597656 C 24.238281 -11.597656 16.238281 -20.796875 16.238281 -32.078125 C 16.238281 -43.355469 24.238281 -52.558594 35.519531 -52.558594 Z M 35.519531 -52.558594 "/></g></g></g><g fill="#ef8214" fill-opacity="0.4"><g transform="translate(372.096442, 126.666834)"><g><path d="M 42.398438 -63.996094 L 42.398438 -22.160156 C 42.398438 -15.679688 37.199219 -10.480469 30.796875 -10.480469 L 29.199219 -10.480469 C 22.796875 -10.480469 17.597656 -15.679688 17.597656 -22.160156 L 17.597656 -63.996094 L 5.601562 -63.996094 L 5.601562 -22.160156 C 5.601562 -9.199219 16.238281 1.441406 29.199219 1.441406 L 30.796875 1.441406 C 43.757812 1.441406 54.316406 -9.199219 54.316406 -22.160156 L 54.316406 -63.996094 Z M 42.398438 -63.996094 "/></g></g></g><g fill="#ef8214" fill-opacity="0.4"><g transform="translate(432.010606, 126.666834)"><g><path d="M 55.597656 -39.996094 C 55.597656 -53.277344 49.515625 -63.996094 33.199219 -63.996094 L 5.601562 -63.996094 L 5.601562 0 L 17.597656 0 L 17.597656 -15.917969 L 33.199219 -15.917969 C 34.636719 -15.917969 35.996094 -16 37.277344 -16.160156 L 43.039062 0 L 55.597656 0 L 48.316406 -20.480469 C 53.597656 -24.878906 55.597656 -31.996094 55.597656 -39.996094 Z M 17.597656 -27.917969 L 17.597656 -52.078125 L 33.199219 -52.078125 C 39.117188 -52.078125 40.71875 -50.078125 41.277344 -49.4375 C 42.796875 -47.515625 43.597656 -44.15625 43.597656 -39.996094 C 43.597656 -35.597656 42.796875 -32.238281 41.355469 -30.476562 C 39.996094 -28.71875 37.277344 -27.917969 33.199219 -27.917969 Z M 17.597656 -27.917969 "/></g></g></g><g fill="#1f9cb9" fill-opacity="1"><g transform="translate(72.873896, 124.87499)"><g><path d="M 35.835938 -63.996094 L 35.835938 -22.078125 C 35.835938 -16.078125 31.039062 -11.199219 25.039062 -11.199219 C 20.558594 -11.199219 16.71875 -13.917969 15.039062 -17.839844 L 5.601562 -10.160156 C 9.679688 -3.679688 16.878906 0.71875 25.039062 0.71875 C 37.519531 0.71875 47.835938 -9.519531 47.835938 -22.078125 L 47.835938 -63.996094 Z M 35.835938 -63.996094 "/></g></g></g><g fill="#1f9cb9" fill-opacity="1"><g transform="translate(126.308702, 124.87499)"><g><path d="M 35.519531 -64.796875 C 17.4375 -64.796875 2.800781 -50.15625 2.800781 -32.078125 C 2.800781 -14 17.4375 0.640625 35.519531 0.640625 C 53.597656 0.640625 68.234375 -14 68.234375 -32.078125 C 68.234375 -50.15625 53.597656 -64.796875 35.519531 -64.796875 Z M 35.519531 -52.558594 C 46.878906 -52.558594 54.875 -43.355469 54.875 -32.078125 C 54.875 -20.796875 46.878906 -11.597656 35.519531 -11.597656 C 24.238281 -11.597656 16.238281 -20.796875 16.238281 -32.078125 C 16.238281 -43.355469 24.238281 -52.558594 35.519531 -52.558594 Z M 35.519531 -52.558594 "/></g></g></g><g fill="#1f9cb9" fill-opacity="1"><g transform="translate(197.341796, 124.87499)"><g><path d="M 5.601562 -63.996094 L 17.597656 -63.996094 L 17.597656 -0.238281 L 5.601562 -0.238281 Z M 5.601562 -63.996094 "/></g></g></g><g fill="#1f9cb9" fill-opacity="1"><g transform="translate(220.53954, 124.87499)"><g><path d="M 43.597656 -63.996094 L 43.597656 -20.796875 L 18.71875 -63.996094 L 5.601562 -63.996094 L 5.601562 0 L 17.597656 0 L 17.597656 -40.078125 L 40.636719 0 L 55.597656 0 L 55.597656 -63.996094 Z M 43.597656 -63.996094 "/></g></g></g><g fill="#1f9cb9" fill-opacity="1"><g transform="translate(281.733589, 124.87499)"><g/></g></g><g fill="#1f9cb9" fill-opacity="1"><g transform="translate(305.731253, 124.87499)"><g><path d="M 35.519531 -64.796875 C 17.4375 -64.796875 2.800781 -50.15625 2.800781 -32.078125 C 2.800781 -14 17.4375 0.640625 35.519531 0.640625 C 53.597656 0.640625 68.234375 -14 68.234375 -32.078125 C 68.234375 -50.15625 53.597656 -64.796875 35.519531 -64.796875 Z M 35.519531 -52.558594 C 46.878906 -52.558594 54.875 -43.355469 54.875 -32.078125 C 54.875 -20.796875 46.878906 -11.597656 35.519531 -11.597656 C 24.238281 -11.597656 16.238281 -20.796875 16.238281 -32.078125 C 16.238281 -43.355469 24.238281 -52.558594 35.519531 -52.558594 Z M 35.519531 -52.558594 "/></g></g></g><g fill="#1f9cb9" fill-opacity="1"><g transform="translate(376.764358, 124.87499)"><g><path d="M 42.398438 -63.996094 L 42.398438 -22.160156 C 42.398438 -15.679688 37.199219 -10.480469 30.796875 -10.480469 L 29.199219 -10.480469 C 22.796875 -10.480469 17.597656 -15.679688 17.597656 -22.160156 L 17.597656 -63.996094 L 5.601562 -63.996094 L 5.601562 -22.160156 C 5.601562 -9.199219 16.238281 1.441406 29.199219 1.441406 L 30.796875 1.441406 C 43.757812 1.441406 54.316406 -9.199219 54.316406 -22.160156 L 54.316406 -63.996094 Z M 42.398438 -63.996094 "/></g></g></g><g fill="#1f9cb9" fill-opacity="1"><g transform="translate(436.678522, 124.87499)"><g><path d="M 55.597656 -39.996094 C 55.597656 -53.277344 49.515625 -63.996094 33.199219 -63.996094 L 5.601562 -63.996094 L 5.601562 0 L 17.597656 0 L 17.597656 -15.917969 L 33.199219 -15.917969 C 34.636719 -15.917969 35.996094 -16 37.277344 -16.160156 L 43.039062 0 L 55.597656 0 L 48.316406 -20.480469 C 53.597656 -24.878906 55.597656 -31.996094 55.597656 -39.996094 Z M 17.597656 -27.917969 L 17.597656 -52.078125 L 33.199219 -52.078125 C 39.117188 -52.078125 40.71875 -50.078125 41.277344 -49.4375 C 42.796875 -47.515625 43.597656 -44.15625 43.597656 -39.996094 C 43.597656 -35.597656 42.796875 -32.238281 41.355469 -30.476562 C 39.996094 -28.71875 37.277344 -27.917969 33.199219 -27.917969 Z M 17.597656 -27.917969 "/></g></g></g><g fill="#ffffff" fill-opacity="0.4"><g transform="translate(29.965268, 211.942893)"><g><path d="M 51.519531 -55.996094 L 40.039062 -55.996094 L 28.210938 -27.789062 L 16.449219 -55.996094 L 4.898438 -55.996094 L 4.898438 0 L 15.398438 0 L 15.398438 -30.9375 L 22.46875 -14.070312 L 33.949219 -14.070312 L 41.089844 -31.078125 L 41.089844 0 L 51.519531 0 Z M 51.519531 -55.996094 "/></g></g></g><g fill="#ffffff" fill-opacity="0.4"><g transform="translate(86.382187, 211.942893)"><g><path d="M 37.9375 0 L 48.859375 0 L 32.410156 -55.859375 L 32.410156 -55.996094 L 21.417969 -55.996094 L 4.898438 0 L 15.890625 0 L 20.019531 -13.929688 L 33.808594 -13.929688 Z M 23.097656 -24.359375 L 26.949219 -37.378906 L 30.730469 -24.359375 Z M 23.097656 -24.359375 "/></g></g></g><g fill="#ffffff" fill-opacity="0.4"><g transform="translate(140.139247, 211.942893)"><g><path d="M 4.898438 -55.996094 L 15.398438 -55.996094 L 15.398438 -0.210938 L 4.898438 -0.210938 Z M 4.898438 -55.996094 "/></g></g></g><g fill="#ffffff" fill-opacity="0.4"><g transform="translate(160.438135, 211.942893)"><g><path d="M 15.328125 -10.429688 L 15.328125 -55.996094 L 4.898438 -55.996094 L 4.898438 0 L 37.308594 0 L 37.308594 -10.429688 Z M 15.328125 -10.429688 "/></g></g></g><g fill="#ffffff" fill-opacity="0.4"><g transform="translate(202.64583, 211.942893)"><g><path d="M 4.898438 -55.996094 L 15.398438 -55.996094 L 15.398438 -0.210938 L 4.898438 -0.210938 Z M 4.898438 -55.996094 "/></g></g></g><g fill="#ffffff" fill-opacity="0.4"><g transform="translate(222.944729, 211.942893)"><g><path d="M 38.148438 -55.996094 L 38.148438 -18.199219 L 16.378906 -55.996094 L 4.898438 -55.996094 L 4.898438 0 L 15.398438 0 L 15.398438 -35.070312 L 35.558594 0 L 48.648438 0 L 48.648438 -55.996094 Z M 38.148438 -55.996094 "/></g></g></g><g fill="#ffffff" fill-opacity="0.4"><g transform="translate(276.491814, 211.942893)"><g><path d="M 61.808594 -32.6875 L 35.699219 -32.6875 L 35.699219 -21.980469 L 49.558594 -21.980469 C 47.386719 -15.050781 41.367188 -10.007812 33.527344 -10.007812 C 23.660156 -10.007812 16.660156 -18.058594 16.660156 -27.929688 C 16.660156 -37.796875 23.660156 -45.847656 33.527344 -45.847656 C 37.027344 -45.847656 40.179688 -44.867188 42.699219 -43.117188 L 50.539062 -50.957031 C 45.777344 -54.457031 39.898438 -56.558594 33.527344 -56.558594 C 17.710938 -56.558594 4.898438 -43.75 4.898438 -27.929688 C 4.898438 -12.109375 17.710938 0.699219 33.527344 0.699219 C 49.347656 0.699219 62.15625 -12.109375 62.15625 -27.929688 C 62.15625 -29.539062 62.019531 -31.148438 61.808594 -32.6875 Z M 61.808594 -32.6875 "/></g></g></g><g fill="#ffffff" fill-opacity="0.4"><g transform="translate(343.548143, 211.942893)"><g/></g></g><g fill="#ffffff" fill-opacity="0.4"><g transform="translate(364.546997, 211.942893)"><g><path d="M 15.328125 -10.429688 L 15.328125 -55.996094 L 4.898438 -55.996094 L 4.898438 0 L 37.308594 0 L 37.308594 -10.429688 Z M 15.328125 -10.429688 "/></g></g></g><g fill="#ffffff" fill-opacity="0.4"><g transform="translate(406.754681, 211.942893)"><g><path d="M 4.898438 -55.996094 L 15.398438 -55.996094 L 15.398438 -0.210938 L 4.898438 -0.210938 Z M 4.898438 -55.996094 "/></g></g></g><g fill="#ffffff" fill-opacity="0.4"><g transform="translate(427.053569, 211.942893)"><g><path d="M 28.140625 0.699219 L 29.398438 0.699219 C 41.4375 0.628906 48.296875 -7.210938 48.789062 -14.980469 C 49.347656 -23.097656 43.1875 -32.199219 28.347656 -34.089844 L 28.210938 -34.089844 C 22.820312 -34.71875 17.21875 -37.378906 17.5 -41.296875 C 17.710938 -44.097656 21.910156 -46.6875 29.539062 -46.339844 L 29.75 -46.339844 C 33.949219 -46.339844 38.988281 -44.308594 41.578125 -42.417969 L 47.597656 -50.816406 C 43.609375 -53.6875 36.609375 -56.628906 29.890625 -56.628906 C 15.050781 -57.398438 7.839844 -49.839844 7.210938 -42.136719 C 6.859375 -37.660156 8.75 -33.25 12.390625 -29.890625 C 15.960938 -26.597656 21.070312 -24.5 27.089844 -23.871094 C 35.277344 -22.75 38.707031 -18.96875 38.5 -15.679688 C 38.289062 -12.667969 35.070312 -9.660156 29.257812 -9.660156 L 28.910156 -9.660156 C 28.839844 -9.660156 21.210938 -9.238281 16.519531 -13.089844 C 15.328125 -14 14.347656 -15.121094 13.441406 -16.449219 L 4.898438 -10.640625 C 6.300781 -8.539062 8.050781 -6.648438 10.007812 -5.039062 C 16.378906 0.140625 24.777344 0.699219 28.140625 0.699219 Z M 28.140625 0.699219 "/></g></g></g><g fill="#ffffff" fill-opacity="0.4"><g transform="translate(480.740638, 211.942893)"><g><path d="M 46.96875 -55.996094 L 4.898438 -55.996094 L 4.898438 -45.570312 L 20.71875 -45.570312 L 20.71875 0 L 31.148438 0 L 31.148438 -45.570312 L 46.96875 -45.570312 Z M 46.96875 -55.996094 "/></g></g></g><g fill="#ef8214" fill-opacity="1"><g transform="translate(34.04968, 210.375026)"><g><path d="M 51.519531 -55.996094 L 40.039062 -55.996094 L 28.210938 -27.789062 L 16.449219 -55.996094 L 4.898438 -55.996094 L 4.898438 0 L 15.398438 0 L 15.398438 -30.9375 L 22.46875 -14.070312 L 33.949219 -14.070312 L 41.089844 -31.078125 L 41.089844 0 L 51.519531 0 Z M 51.519531 -55.996094 "/></g></g></g><g fill="#ef8214" fill-opacity="1"><g transform="translate(90.466599, 210.375026)"><g><path d="M 37.9375 0 L 48.859375 0 L 32.410156 -55.859375 L 32.410156 -55.996094 L 21.417969 -55.996094 L 4.898438 0 L 15.890625 0 L 20.019531 -13.929688 L 33.808594 -13.929688 Z M 23.097656 -24.359375 L 26.949219 -37.378906 L 30.730469 -24.359375 Z M 23.097656 -24.359375 "/></g></g></g><g fill="#ef8214" fill-opacity="1"><g transform="translate(144.22366, 210.375026)"><g><path d="M 4.898438 -55.996094 L 15.398438 -55.996094 L 15.398438 -0.210938 L 4.898438 -0.210938 Z M 4.898438 -55.996094 "/></g></g></g><g fill="#ef8214" fill-opacity="1"><g transform="translate(164.522547, 210.375026)"><g><path d="M 15.328125 -10.429688 L 15.328125 -55.996094 L 4.898438 -55.996094 L 4.898438 0 L 37.308594 0 L 37.308594 -10.429688 Z M 15.328125 -10.429688 "/></g></g></g><g fill="#ef8214" fill-opacity="1"><g transform="translate(206.730243, 210.375026)"><g><path d="M 4.898438 -55.996094 L 15.398438 -55.996094 L 15.398438 -0.210938 L 4.898438 -0.210938 Z M 4.898438 -55.996094 "/></g></g></g><g fill="#ef8214" fill-opacity="1"><g transform="translate(227.029142, 210.375026)"><g><path d="M 38.148438 -55.996094 L 38.148438 -18.199219 L 16.378906 -55.996094 L 4.898438 -55.996094 L 4.898438 0 L 15.398438 0 L 15.398438 -35.070312 L 35.558594 0 L 48.648438 0 L 48.648438 -55.996094 Z M 38.148438 -55.996094 "/></g></g></g><g fill="#ef8214" fill-opacity="1"><g transform="translate(280.576226, 210.375026)"><g><path d="M 61.808594 -32.6875 L 35.699219 -32.6875 L 35.699219 -21.980469 L 49.558594 -21.980469 C 47.386719 -15.050781 41.367188 -10.007812 33.527344 -10.007812 C 23.660156 -10.007812 16.660156 -18.058594 16.660156 -27.929688 C 16.660156 -37.796875 23.660156 -45.847656 33.527344 -45.847656 C 37.027344 -45.847656 40.179688 -44.867188 42.699219 -43.117188 L 50.539062 -50.957031 C 45.777344 -54.457031 39.898438 -56.558594 33.527344 -56.558594 C 17.710938 -56.558594 4.898438 -43.75 4.898438 -27.929688 C 4.898438 -12.109375 17.710938 0.699219 33.527344 0.699219 C 49.347656 0.699219 62.15625 -12.109375 62.15625 -27.929688 C 62.15625 -29.539062 62.019531 -31.148438 61.808594 -32.6875 Z M 61.808594 -32.6875 "/></g></g></g><g fill="#ef8214" fill-opacity="1"><g transform="translate(347.632556, 210.375026)"><g/></g></g><g fill="#ef8214" fill-opacity="1"><g transform="translate(368.63141, 210.375026)"><g><path d="M 15.328125 -10.429688 L 15.328125 -55.996094 L 4.898438 -55.996094 L 4.898438 0 L 37.308594 0 L 37.308594 -10.429688 Z M 15.328125 -10.429688 "/></g></g></g><g fill="#ef8214" fill-opacity="1"><g transform="translate(410.839094, 210.375026)"><g><path d="M 4.898438 -55.996094 L 15.398438 -55.996094 L 15.398438 -0.210938 L 4.898438 -0.210938 Z M 4.898438 -55.996094 "/></g></g></g><g fill="#ef8214" fill-opacity="1"><g transform="translate(431.137982, 210.375026)"><g><path d="M 28.140625 0.699219 L 29.398438 0.699219 C 41.4375 0.628906 48.296875 -7.210938 48.789062 -14.980469 C 49.347656 -23.097656 43.1875 -32.199219 28.347656 -34.089844 L 28.210938 -34.089844 C 22.820312 -34.71875 17.21875 -37.378906 17.5 -41.296875 C 17.710938 -44.097656 21.910156 -46.6875 29.539062 -46.339844 L 29.75 -46.339844 C 33.949219 -46.339844 38.988281 -44.308594 41.578125 -42.417969 L 47.597656 -50.816406 C 43.609375 -53.6875 36.609375 -56.628906 29.890625 -56.628906 C 15.050781 -57.398438 7.839844 -49.839844 7.210938 -42.136719 C 6.859375 -37.660156 8.75 -33.25 12.390625 -29.890625 C 15.960938 -26.597656 21.070312 -24.5 27.089844 -23.871094 C 35.277344 -22.75 38.707031 -18.96875 38.5 -15.679688 C 38.289062 -12.667969 35.070312 -9.660156 29.257812 -9.660156 L 28.910156 -9.660156 C 28.839844 -9.660156 21.210938 -9.238281 16.519531 -13.089844 C 15.328125 -14 14.347656 -15.121094 13.441406 -16.449219 L 4.898438 -10.640625 C 6.300781 -8.539062 8.050781 -6.648438 10.007812 -5.039062 C 16.378906 0.140625 24.777344 0.699219 28.140625 0.699219 Z M 28.140625 0.699219 "/></g></g></g><g fill="#ef8214" fill-opacity="1"><g transform="translate(484.82505, 210.375026)"><g><path d="M 46.96875 -55.996094 L 4.898438 -55.996094 L 4.898438 -45.570312 L 20.71875 -45.570312 L 20.71875 0 L 31.148438 0 L 31.148438 -45.570312 L 46.96875 -45.570312 Z M 46.96875 -55.996094 "/></g></g></g></svg>