<svg version="1.2" xmlns="http://www.w3.org/2000/svg" viewBox="0 0 256 256" width="256" height="256">
	<title>mastercard-svg</title>
	<style>
		.s0 { fill: #d9222a } 
		.s1 { fill: #ee9f2d } 
		.s2 { fill: #000000 } 
		.s3 { fill: #ffffff } 
	</style>
	<path id="Layer" class="s0" d="m79.8 199.8c-39.7 0-71.8-32.1-71.8-71.8 0-39.7 32.1-71.8 71.8-71.8 39.7 0 71.8 32.1 71.8 71.8 0 39.7-32.1 71.8-71.8 71.8z"/>
	<path id="Layer" class="s1" d="m176.2 56.2c-18.6 0-35.5 7-48.2 18.6q-3.9 3.5-7.3 7.6h14.6q2.9 3.6 5.4 7.6h-25.4q-2.3 3.7-4.2 7.6h33.8q1.7 3.7 3 7.6h-39.8q-1.3 3.7-2.1 7.6h44c1.1 5 1.6 10.1 1.6 15.2 0 8-1.3 15.6-3.7 22.8h-39.8q1.3 3.9 3 7.6h33.8q-1.9 3.9-4.2 7.6h-25.4q2.5 4 5.4 7.6h14.5q-3.3 4.1-7.2 7.6c12.7 11.6 29.6 18.6 48.2 18.6 39.7 0 71.8-32.1 71.8-71.8 0-39.7-32.1-71.8-71.8-71.8z"/>
	<path id="Layer" fill-rule="evenodd" class="s2" d="m240.7 170.3c-1.2 0-2.3-1-2.3-2.3 0-1.3 1.1-2.3 2.3-2.3 1.3 0 2.4 1 2.4 2.3 0 1.3-1.1 2.3-2.4 2.3zm0-0.5c1 0 1.8-0.8 1.8-1.8 0-0.9-0.8-1.7-1.8-1.7-0.9 0-1.7 0.7-1.7 1.7 0 1 0.8 1.8 1.7 1.8q0 0 0 0zm-0.3-0.8h-0.4v-2h0.8c0.2 0 0.4 0 0.5 0.1 0.2 0.1 0.3 0.3 0.3 0.5 0 0.2-0.1 0.5-0.4 0.5l0.4 0.9h-0.5l-0.3-0.8h-0.4zm0-1.1h0.3c0.1 0 0.2 0 0.3-0.1q0.1 0 0.1-0.2 0-0.1-0.1-0.2c-0.1-0.1-0.2 0-0.3 0h-0.3zm-171.7-18.9h-6.5l0.2-3c-2 2.4-4.6 3.5-8.2 3.5-4.2 0-7.1-3.3-7.1-8.1 0-7.2 5-11.4 13.7-11.4 0.9 0 2 0.1 3.2 0.3 0.2-1 0.3-1.4 0.3-2 0-1.9-1.4-2.7-5-2.7-3.8 0-7 1-8.3 1.4 0.1-0.5 1.1-6.7 1.1-6.7 3.9-1.1 6.4-1.6 9.3-1.6 6.7 0 10.3 3.1 10.3 8.7 0 1.6-0.3 3.4-0.7 5.9-0.6 4.3-2.1 13.5-2.3 15.7zm-5.7-13.2c-0.8-0.1-1.1-0.1-1.7-0.1-4.4 0-6.7 1.5-6.7 4.5 0 1.9 1.1 3 2.8 3 3.2 0 5.5-3 5.6-7.4zm-19.2 13.2h-7.8l4.5-28-10 28h-5.3l-0.6-27.8-4.7 27.8h-7.3l6.1-36.4h11.2l0.7 20.4 6.8-20.4h12.5zm147.6 0h-6.4l0.1-3.1c-2 2.5-4.6 3.6-8.2 3.6-4.2 0-7.1-3.3-7.1-8.1 0-7.2 5.1-11.4 13.7-11.4 0.9 0 2 0.1 3.2 0.2 0.2-0.9 0.3-1.4 0.3-1.9 0-1.9-1.4-2.7-5-2.7-3.8 0-7 0.9-8.3 1.4 0.1-0.5 1.1-6.7 1.1-6.7 3.9-1.1 6.5-1.6 9.4-1.6 6.6 0 10.2 3 10.2 8.7 0 1.5-0.3 3.4-0.6 5.9-0.7 4.3-2.2 13.5-2.4 15.7zm-5.6-13.2c-0.9-0.1-1.2-0.1-1.8-0.1-4.4 0-6.6 1.5-6.6 4.5 0 1.8 1.1 3 2.8 3 3.1 0 5.4-3 5.6-7.4zm-82.5 12.8c-2.2 0.6-3.8 0.9-5.6 0.9-4 0-6.2-2.3-6.2-6.5 0-1.3 0.6-4.7 1.1-7.9 0.4-2.7 3.4-20.2 3.4-20.2h7.7l-0.9 4.5h4.7l-1.1 7.1h-4.7c-0.9 5.6-2.2 12.7-2.2 13.6 0 1.5 0.8 2.2 2.7 2.2q1.3 0 2.1-0.3zm23.8-0.2c-2.7 0.8-5.3 1.2-8 1.2-8.7 0-13.2-4.6-13.2-13.3 0-10.1 5.8-17.5 13.6-17.5 6.4 0 10.4 4.1 10.4 10.7 0 2.2-0.2 4.3-0.9 7.3h-15.4c-0.6 4.3 2.2 6.1 6.7 6.1 2.8 0 5.3-0.6 8-1.9zm-4.3-17.6c0-0.6 0.8-5.3-3.6-5.3-2.5 0-4.2 1.9-5 5.3zm-37.6-12c1.8 0 4.8 0.3 6.8 0.6l-1.1 6.8c-1.9-0.2-4-0.4-5.6-0.4-2.5 0-3.8 0.8-3.8 2.4 0 1.4 0.4 1.7 3.7 3.2 3.9 1.8 5.5 4.2 5.5 8.3 0 6.8-3.8 9.9-12.1 9.9-4.7-0.1-6.3-0.5-8.1-0.9 0.1-0.3 1.1-6.8 1.1-6.8 2.5 0.8 4.6 1.1 7 1.1 3.1 0 4.5-0.8 4.5-2.6 0-1.4-0.5-1.8-3.7-3.3-4.1-1.9-5.9-4.5-5.9-8.3-0.1-5.4 3-10 11.7-10zm70 14.4c0 5.6 2.7 8.9 7.3 8.9 1.9 0 4-0.6 6.6-1.9l-1.4 8.3c-2.8 0.8-4.7 1.1-6.9 1.1-8.3 0-13.6-6-13.6-15.7q0-3.1 0.6-6.1c-2.8-0.1-4.2 0.5-4.6 2.1l-2.9 1.6c-0.5 3.7-1.2 9.1-2.5 17.6h-7.8l0.4-2c1.3-9.2 3.1-18.5 4-27.6h7.2c0.1 1-0.1 1.9-0.2 2.9l2-0.4c2.3-3 4.1-6.1 8.7-4.6 3.1-4.2 7.5-6.8 12.7-6.8 3.4 0 7.4 2.6 8.5 3l-1.2 7.9c-2.8-1.4-4.8-1.9-7-1.9-5.8 0-9.9 5.6-9.9 13.6z"/>
	<path id="Layer" class="s3" d="m46.1 146.9h-7.8l4.5-28-10 28h-5.3l-0.7-27.8-4.7 27.8h-7.3l6.1-36.4h11.2l0.3 22.5 7.6-22.5h12.1z"/>
	<path id="Layer" fill-rule="evenodd" class="s2" d="m238.7 112.6l-5.9 36.5h-7.4l0.4-2.8c-2.2 2.3-4.4 3.3-7.2 3.3-5.7 0-9.4-4.9-9.4-12.3 0-3.4 0.6-6.7 1.8-9.6-2.7-0.2-4 1.9-6.6 4.3q-0.9 6.8-2.5 17.1h-7.8l0.4-2c1.3-9.2 3-18.5 4-27.7h7.2q0 0.8-0.4 4.5c0.1 0 3.5 1.1 6.7 1.8 2.3-4.4 5.9-7.4 9.8-7.4 3.1 0 5.3 2.1 7.5 4.9l1.7-10.6zm-33.3 11.3h-0.1q0.1 0 0.1 0 0 0 0 0zm22.1 8.3c0-3.7-1.5-5.8-4.2-5.8-3.5 0-6 4.2-6 10q0 5.8 4 5.8c3.6 0 6.2-4.1 6.2-10z"/>
	<path id="Layer" fill-rule="evenodd" class="s3" d="m70.9 146.9h-6.4l0.1-3.1c-1.9 2.5-4.6 3.6-8.1 3.6-4.3 0-7.2-3.3-7.2-8.1 0-7.2 5.1-11.4 13.7-11.4 0.9 0 2 0.1 3.2 0.2 0.2-0.9 0.3-1.4 0.3-1.9 0-2-1.3-2.7-5-2.7-3.8 0-6.9 0.9-8.2 1.3 0-0.4 1-6.6 1-6.6 3.9-1.2 6.5-1.6 9.4-1.6 6.7 0 10.2 3 10.2 8.7 0 1.5-0.2 3.4-0.6 5.9-0.7 4.3-2.2 13.5-2.4 15.7zm-5.6-13.2c-0.8-0.1-1.2-0.1-1.8-0.1-4.4 0-6.6 1.5-6.6 4.5 0 1.8 1.1 3 2.8 3 3.2 0 5.4-3 5.6-7.4zm110.2-22.2l-1.3 7.9c-2.8-1.4-4.8-2-6.9-2-5.9 0-9.9 5.6-9.9 13.6 0 5.6 2.7 8.9 7.2 8.9 2 0 4.1-0.6 6.7-1.9l-1.4 8.3c-2.9 0.8-4.7 1.1-6.9 1.1-8.4 0-13.6-6-13.6-15.7 0-13 7.2-22.1 17.5-22.1 3.4 0 7.5 1.4 8.6 1.9zm18.2 35.4h-6.4l0.1-3.1c-1.9 2.5-4.6 3.6-8.1 3.6-4.3 0-7.2-3.3-7.2-8.1 0-7.2 5.1-11.4 13.7-11.4 0.9 0 2 0.1 3.2 0.2 0.2-0.9 0.3-1.4 0.3-1.9 0-2-1.3-2.7-5-2.7-3.8 0-6.9 0.9-8.2 1.3 0-0.4 1-6.6 1-6.6 3.9-1.2 6.5-1.6 9.4-1.6 6.7 0 10.2 3 10.2 8.7 0 1.5-0.2 3.4-0.6 5.9-0.7 4.3-2.2 13.5-2.4 15.7zm-5.6-13.2c-0.8-0.1-1.2-0.1-1.8-0.1-4.4 0-6.6 1.5-6.6 4.5 0 1.8 1.1 3 2.8 3 3.2 0 5.4-3 5.6-7.4zm-82.5 12.7c-2.1 0.7-3.8 1-5.6 1-4 0-6.2-2.3-6.2-6.5 0-1.3 0.6-4.7 1.1-7.9 0.4-2.8 3.4-20.2 3.4-20.2h7.7l-0.9 4.5h4l-1.1 7.1h-3.9c-0.9 5.6-2.2 12.6-2.2 13.6 0 1.5 0.8 2.2 2.6 2.2q1.3 0 2.1-0.3zm23.8-0.2c-2.7 0.8-5.3 1.2-8 1.2-8.6-0.1-13.2-4.6-13.2-13.3 0-10.1 5.8-17.5 13.6-17.5 6.4 0 10.5 4.1 10.5 10.7 0 2.2-0.3 4.3-1 7.3h-15.4c-0.5 4.3 2.2 6.1 6.7 6.1 2.8 0 5.3-0.6 8.1-1.9zm-4.4-17.6c0.1-0.6 0.8-5.3-3.6-5.3-2.5 0-4.2 1.9-4.9 5.3zm-37.7-12c1.8 0 4.8 0.2 6.9 0.6l-1.1 6.8c-2-0.2-4.1-0.4-5.7-0.4-2.5 0-3.8 0.8-3.8 2.4 0 1.4 0.4 1.7 3.7 3.2 3.9 1.8 5.5 4.2 5.5 8.3 0 6.8-3.8 9.9-12.1 9.9-4.7-0.1-6.3-0.5-8.1-0.9 0.1-0.3 1.1-6.8 1.1-6.8 2.5 0.8 4.7 1.1 7 1.1 3.1 0 4.5-0.8 4.5-2.6 0-1.4-0.5-1.8-3.7-3.3-4.1-2-5.9-4.5-5.9-8.3 0-5.5 3-10 11.7-10zm147.7 30.3h-7.4l0.4-2.8c-2.2 2.3-4.4 3.3-7.2 3.3-5.7 0-9.4-4.9-9.4-12.3 0-9.9 5.8-18.2 12.6-18.2 3.1 0 5.4 1.3 7.5 4.1l1.7-10.5h7.7zm-11.5-6.9c3.6 0 6.2-4.1 6.2-10 0-3.7-1.5-5.8-4.1-5.8-3.6 0-6.1 4.2-6.1 10q0 5.8 4 5.8zm-15.6-22.8c0.1 1.5-0.2 3-0.4 4.5 2.4-3.5 4.2-5.3 7.4-4.6-0.9 1.6-2.2 4.8-2.9 8.6-4.4-0.5-5.1 3-7.9 21.2h-7.8l0.4-2c1.4-9.2 3.1-18.5 4.1-27.7zm-64.2 0c0.1 1.5-0.3 3-0.5 4.5 2.4-3.5 4.2-5.3 7.5-4.6-1 1.6-2.3 4.8-3 8.6-4.3-0.5-5 3-7.8 21.2h-7.8l0.4-2c1.3-9.2 3.1-18.5 4-27.7zm94.7 27.3c0-1.2 1-2.3 2.3-2.3 1.3 0 2.3 1 2.3 2.3 0 1.3-1 2.4-2.3 2.4-1.3 0-2.3-1.1-2.3-2.4zm2.3 1.8c1 0 1.8-0.8 1.8-1.8 0-0.9-0.8-1.7-1.8-1.7-0.9 0-1.7 0.8-1.7 1.7 0 1 0.8 1.8 1.7 1.8zm-0.3-0.8h-0.5v-2h0.9c0.2 0 0.4 0 0.5 0.1 0.2 0.1 0.3 0.3 0.3 0.5 0 0.3-0.2 0.5-0.4 0.6l0.4 0.8h-0.5l-0.3-0.8h-0.4zm0-1.1h0.3c0.1 0 0.2 0 0.3 0q0.1-0.1 0.1-0.3 0-0.1-0.1-0.2c-0.1 0-0.2 0-0.3 0h-0.3z"/>
</svg>