<svg id="visual" viewBox="0 0 960 540" width="960" height="540" xmlns="http://www.w3.org/2000/svg" xmlns:xlink="http://www.w3.org/1999/xlink" version="1.1"><rect x="0" y="0" width="960" height="540" fill="#F0F7FC"></rect><path d="M0 294L5.2 286C10.3 278 20.7 262 31 269.7C41.3 277.3 51.7 308.7 62 326.7C72.3 344.7 82.7 349.3 93 350C103.3 350.7 113.7 347.3 124 336.3C134.3 325.3 144.7 306.7 155 306.8C165.3 307 175.7 326 186 328.2C196.3 330.3 206.7 315.7 217 303.8C227.3 292 237.7 283 248 275.3C258.3 267.7 268.7 261.3 279 255C289.3 248.7 299.7 242.3 310 246.3C320.3 250.3 330.7 264.7 341 283.7C351.3 302.7 361.7 326.3 372 320.7C382.3 315 392.7 280 403 274.3C413.3 268.7 423.7 292.3 434 308C444.3 323.7 454.7 331.3 464.8 327.5C475 323.7 485 308.3 495.2 311.3C505.3 314.3 515.7 335.7 526 337.5C536.3 339.3 546.7 321.7 557 317C567.3 312.3 577.7 320.7 588 314.3C598.3 308 608.7 287 619 272.7C629.3 258.3 639.7 250.7 650 248.3C660.3 246 670.7 249 681 250.7C691.3 252.3 701.7 252.7 712 248C722.3 243.3 732.7 233.7 743 240.8C753.3 248 763.7 272 774 287.5C784.3 303 794.7 310 805 306.2C815.3 302.3 825.7 287.7 836 281.7C846.3 275.7 856.7 278.3 867 274.7C877.3 271 887.7 261 898 269.3C908.3 277.7 918.7 304.3 929 323.8C939.3 343.3 949.7 355.7 954.8 361.8L960 368L960 541L954.8 541C949.7 541 939.3 541 929 541C918.7 541 908.3 541 898 541C887.7 541 877.3 541 867 541C856.7 541 846.3 541 836 541C825.7 541 815.3 541 805 541C794.7 541 784.3 541 774 541C763.7 541 753.3 541 743 541C732.7 541 722.3 541 712 541C701.7 541 691.3 541 681 541C670.7 541 660.3 541 650 541C639.7 541 629.3 541 619 541C608.7 541 598.3 541 588 541C577.7 541 567.3 541 557 541C546.7 541 536.3 541 526 541C515.7 541 505.3 541 495.2 541C485 541 475 541 464.8 541C454.7 541 444.3 541 434 541C423.7 541 413.3 541 403 541C392.7 541 382.3 541 372 541C361.7 541 351.3 541 341 541C330.7 541 320.3 541 310 541C299.7 541 289.3 541 279 541C268.7 541 258.3 541 248 541C237.7 541 227.3 541 217 541C206.7 541 196.3 541 186 541C175.7 541 165.3 541 155 541C144.7 541 134.3 541 124 541C113.7 541 103.3 541 93 541C82.7 541 72.3 541 62 541C51.7 541 41.3 541 31 541C20.7 541 10.3 541 5.2 541L0 541Z" fill="#1F9CB9" stroke-linecap="round" stroke-linejoin="miter"></path></svg>