<svg id="visual" viewBox="0 0 960 540" width="960" height="540" xmlns="http://www.w3.org/2000/svg" xmlns:xlink="http://www.w3.org/1999/xlink" version="1.1"><rect x="0" y="0" width="960" height="540" fill="#F8F8F8"></rect><path d="M0 233L5.2 253C10.3 273 20.7 313 31 335.2C41.3 357.3 51.7 361.7 62 360.5C72.3 359.3 82.7 352.7 93 330.8C103.3 309 113.7 272 124 256.3C134.3 240.7 144.7 246.3 155 262.5C165.3 278.7 175.7 305.3 186 303C196.3 300.7 206.7 269.3 217 271.2C227.3 273 237.7 308 248 310.3C258.3 312.7 268.7 282.3 279 275C289.3 267.7 299.7 283.3 310 285.8C320.3 288.3 330.7 277.7 341 286.5C351.3 295.3 361.7 323.7 372 328.2C382.3 332.7 392.7 313.3 403 305.3C413.3 297.3 423.7 300.7 434 298.3C444.3 296 454.7 288 464.8 282C475 276 485 272 495.2 263.7C505.3 255.3 515.7 242.7 526 239.8C536.3 237 546.7 244 557 257.3C567.3 270.7 577.7 290.3 588 299C598.3 307.7 608.7 305.3 619 291.2C629.3 277 639.7 251 650 239.8C660.3 228.7 670.7 232.3 681 244.2C691.3 256 701.7 276 712 276.5C722.3 277 732.7 258 743 248.2C753.3 238.3 763.7 237.7 774 250.7C784.3 263.7 794.7 290.3 805 304.5C815.3 318.7 825.7 320.3 836 317.7C846.3 315 856.7 308 867 296.2C877.3 284.3 887.7 267.7 898 265.7C908.3 263.7 918.7 276.3 929 280.2C939.3 284 949.7 279 954.8 276.5L960 274L960 541L954.8 541C949.7 541 939.3 541 929 541C918.7 541 908.3 541 898 541C887.7 541 877.3 541 867 541C856.7 541 846.3 541 836 541C825.7 541 815.3 541 805 541C794.7 541 784.3 541 774 541C763.7 541 753.3 541 743 541C732.7 541 722.3 541 712 541C701.7 541 691.3 541 681 541C670.7 541 660.3 541 650 541C639.7 541 629.3 541 619 541C608.7 541 598.3 541 588 541C577.7 541 567.3 541 557 541C546.7 541 536.3 541 526 541C515.7 541 505.3 541 495.2 541C485 541 475 541 464.8 541C454.7 541 444.3 541 434 541C423.7 541 413.3 541 403 541C392.7 541 382.3 541 372 541C361.7 541 351.3 541 341 541C330.7 541 320.3 541 310 541C299.7 541 289.3 541 279 541C268.7 541 258.3 541 248 541C237.7 541 227.3 541 217 541C206.7 541 196.3 541 186 541C175.7 541 165.3 541 155 541C144.7 541 134.3 541 124 541C113.7 541 103.3 541 93 541C82.7 541 72.3 541 62 541C51.7 541 41.3 541 31 541C20.7 541 10.3 541 5.2 541L0 541Z" fill="#F9B413" stroke-linecap="round" stroke-linejoin="miter"></path></svg>