<svg id="visual" viewBox="0 0 960 540" width="960" height="540" xmlns="http://www.w3.org/2000/svg" xmlns:xlink="http://www.w3.org/1999/xlink" version="1.1"><rect x="0" y="0" width="960" height="540" fill="#FFFFFF"></rect><path d="M0 297L22.8 313.7C45.7 330.3 91.3 363.7 137 378.5C182.7 393.3 228.3 389.7 274 368C319.7 346.3 365.3 306.7 411.2 289.2C457 271.7 503 276.3 548.8 279.5C594.7 282.7 640.3 284.3 686 291.8C731.7 299.3 777.3 312.7 823 329.3C868.7 346 914.3 366 937.2 376L960 386L960 541L937.2 541C914.3 541 868.7 541 823 541C777.3 541 731.7 541 686 541C640.3 541 594.7 541 548.8 541C503 541 457 541 411.2 541C365.3 541 319.7 541 274 541C228.3 541 182.7 541 137 541C91.3 541 45.7 541 22.8 541L0 541Z" fill="#F9B413" stroke-linecap="round" stroke-linejoin="miter"></path></svg>