<svg id="visual" viewBox="0 0 960 540" width="960" height="540" xmlns="http://www.w3.org/2000/svg" xmlns:xlink="http://www.w3.org/1999/xlink" version="1.1"><rect x="0" y="0" width="960" height="540" fill="#EF8214"></rect><path d="M0 418L22.8 426.3C45.7 434.7 91.3 451.3 137 458.8C182.7 466.3 228.3 464.7 274 453.8C319.7 443 365.3 423 411.2 414.2C457 405.3 503 407.7 548.8 409.2C594.7 410.7 640.3 411.3 686 415.2C731.7 419 777.3 426 823 434.3C868.7 442.7 914.3 452.3 937.2 457.2L960 462L960 541L937.2 541C914.3 541 868.7 541 823 541C777.3 541 731.7 541 686 541C640.3 541 594.7 541 548.8 541C503 541 457 541 411.2 541C365.3 541 319.7 541 274 541C228.3 541 182.7 541 137 541C91.3 541 45.7 541 22.8 541L0 541Z" fill="#F9B413" stroke-linecap="round" stroke-linejoin="miter"></path></svg>