<svg id="visual" viewBox="0 0 960 540" width="960" height="540" xmlns="http://www.w3.org/2000/svg" xmlns:xlink="http://www.w3.org/1999/xlink" version="1.1"><rect x="0" y="0" width="960" height="540" fill="#EF8214"></rect><path d="M0 358L22.8 370.5C45.7 383 91.3 408 137 419C182.7 430 228.3 427 274 410.7C319.7 394.3 365.3 364.7 411.2 351.5C457 338.3 503 341.7 548.8 344C594.7 346.3 640.3 347.7 686 353.5C731.7 359.3 777.3 369.7 823 382.2C868.7 394.7 914.3 409.3 937.2 416.7L960 424L960 541L937.2 541C914.3 541 868.7 541 823 541C777.3 541 731.7 541 686 541C640.3 541 594.7 541 548.8 541C503 541 457 541 411.2 541C365.3 541 319.7 541 274 541C228.3 541 182.7 541 137 541C91.3 541 45.7 541 22.8 541L0 541Z" fill="#F9B413" stroke-linecap="round" stroke-linejoin="miter"></path></svg>